<svg xmlns="http://www.w3.org/2000/svg" xmlns:xlink="http://www.w3.org/1999/xlink" width="500" zoomAndPan="magnify" viewBox="0 0 375 374.999991" height="500" preserveAspectRatio="xMidYMid meet" version="1.0"><defs><g/><clipPath id="dfdf293363"><path d="M 164 158 L 200 158 L 200 213 L 164 213 Z M 164 158 " clip-rule="nonzero"/></clipPath><clipPath id="40514e4900"><path d="M 146.097656 180.371094 L 175.28125 145.136719 L 219.757812 181.976562 L 190.570312 217.207031 Z M 146.097656 180.371094 " clip-rule="nonzero"/></clipPath><clipPath id="6ce8d31925"><path d="M 146.097656 180.371094 L 175.28125 145.136719 L 219.757812 181.976562 L 190.570312 217.207031 Z M 146.097656 180.371094 " clip-rule="nonzero"/></clipPath><clipPath id="82051ef144"><path d="M 146.097656 180.371094 L 175.28125 145.136719 L 219.757812 181.976562 L 190.570312 217.207031 Z M 146.097656 180.371094 " clip-rule="nonzero"/></clipPath><clipPath id="ce034f7450"><path d="M 157 154 L 196 154 L 196 213 L 157 213 Z M 157 154 " clip-rule="nonzero"/></clipPath><clipPath id="351e879fbf"><path d="M 146.097656 180.371094 L 175.28125 145.136719 L 219.757812 181.976562 L 190.570312 217.207031 Z M 146.097656 180.371094 " clip-rule="nonzero"/></clipPath><clipPath id="36c73c31eb"><path d="M 146.097656 180.371094 L 175.28125 145.136719 L 219.757812 181.976562 L 190.570312 217.207031 Z M 146.097656 180.371094 " clip-rule="nonzero"/></clipPath><clipPath id="75ca3d192c"><path d="M 146.097656 180.371094 L 175.28125 145.136719 L 219.757812 181.976562 L 190.570312 217.207031 Z M 146.097656 180.371094 " clip-rule="nonzero"/></clipPath></defs><rect x="-37.5" width="450" fill="#ffffff" y="-37.499999" height="449.999989" fill-opacity="1"/><rect x="-37.5" width="450" fill="#ffffff" y="-37.499999" height="449.999989" fill-opacity="1"/><g clip-path="url(#dfdf293363)"><g clip-path="url(#40514e4900)"><g clip-path="url(#6ce8d31925)"><g clip-path="url(#82051ef144)"><path fill="#ffcc00" d="M 176.464844 159.765625 C 185.75 156.835938 195.605469 161.980469 198.480469 171.257812 C 200.941406 179.210938 197.476562 187.613281 190.59375 191.699219 L 193.324219 200.515625 L 195.492188 207.515625 C 196.148438 209.636719 194.949219 211.921875 192.824219 212.589844 C 190.703125 213.261719 188.425781 212.074219 187.769531 209.953125 L 185.601562 202.953125 L 182.871094 194.140625 C 174.90625 194.738281 167.316406 189.824219 164.855469 181.875 C 161.984375 172.597656 167.179688 162.699219 176.464844 159.765625 Z M 192.824219 212.589844 Z M 192.824219 212.589844 " fill-opacity="1" fill-rule="evenodd"/></g></g></g></g><g clip-path="url(#ce034f7450)"><g clip-path="url(#351e879fbf)"><g clip-path="url(#36c73c31eb)"><g clip-path="url(#75ca3d192c)"><path fill="#000000" d="M 172.390625 159.21875 C 176.421875 157.949219 180.574219 158.429688 184.03125 160.234375 C 187.488281 162.039062 190.25 165.167969 191.5 169.195312 L 188.839844 170.03125 C 187.820312 166.738281 185.5625 164.179688 182.734375 162.703125 C 179.90625 161.226562 176.507812 160.835938 173.214844 161.875 Z M 171.292969 155.675781 C 176.300781 154.09375 181.464844 154.691406 185.765625 156.933594 C 190.0625 159.175781 193.496094 163.066406 195.046875 168.074219 C 196.597656 173.078125 195.96875 178.25 193.703125 182.566406 C 192.253906 185.332031 190.128906 187.742188 187.476562 189.535156 L 189.8125 197.070312 L 190.257812 198.511719 L 192.425781 205.511719 C 192.867188 206.9375 192.683594 208.417969 192.035156 209.65625 C 191.386719 210.890625 190.269531 211.882812 188.84375 212.335938 C 187.414062 212.785156 185.933594 212.613281 184.703125 211.96875 C 183.472656 211.328125 182.488281 210.214844 182.046875 208.789062 L 179.878906 201.789062 L 179.433594 200.347656 L 177.097656 192.8125 C 173.90625 192.863281 170.800781 192.105469 168.050781 190.667969 C 163.75 188.421875 160.316406 184.53125 158.765625 179.527344 C 157.21875 174.523438 157.84375 169.351562 160.109375 165.035156 C 162.378906 160.714844 166.285156 157.253906 171.292969 155.675781 Z M 185 190.953125 C 184.390625 191.242188 183.757812 191.503906 183.109375 191.730469 L 183.074219 191.742188 C 183.03125 191.757812 182.988281 191.773438 182.945312 191.789062 C 182.886719 191.808594 182.824219 191.828125 182.765625 191.847656 L 182.746094 191.855469 C 182.671875 191.878906 182.597656 191.902344 182.519531 191.925781 C 182.445312 191.949219 182.371094 191.972656 182.296875 191.996094 L 182.273438 192.003906 C 182.214844 192.019531 182.152344 192.039062 182.09375 192.054688 C 182.050781 192.070312 182.007812 192.082031 181.960938 192.09375 L 181.929688 192.101562 L 181.925781 192.105469 C 181.265625 192.289062 180.597656 192.4375 179.933594 192.550781 L 182.152344 199.710938 C 182.378906 199.65625 182.597656 199.597656 182.808594 199.539062 C 183.371094 199.386719 184.003906 199.199219 184.703125 198.980469 C 185.40625 198.757812 186.03125 198.546875 186.582031 198.347656 C 186.789062 198.273438 187 198.195312 187.21875 198.113281 Z M 184.46875 159.402344 C 180.796875 157.488281 176.390625 156.980469 172.117188 158.328125 C 167.839844 159.679688 164.503906 162.632812 162.570312 166.316406 C 160.636719 170 160.101562 174.417969 161.425781 178.6875 C 162.746094 182.960938 165.679688 186.28125 169.347656 188.195312 C 173.015625 190.113281 177.421875 190.621094 181.699219 189.273438 C 185.972656 187.921875 189.308594 184.96875 191.242188 181.285156 C 193.179688 177.597656 193.714844 173.183594 192.390625 168.910156 C 191.066406 164.640625 188.136719 161.320312 184.46875 159.402344 Z M 189.769531 206.351562 L 188.039062 200.765625 C 187.863281 200.828125 187.6875 200.894531 187.503906 200.960938 C 186.789062 201.21875 186.128906 201.445312 185.527344 201.632812 C 184.925781 201.824219 184.257812 202.015625 183.523438 202.21875 C 183.335938 202.269531 183.152344 202.316406 182.972656 202.363281 L 184.703125 207.949219 C 184.917969 208.644531 185.398438 209.1875 186 209.5 C 186.605469 209.8125 187.324219 209.898438 188.019531 209.679688 C 188.714844 209.460938 189.257812 208.976562 189.578125 208.371094 C 189.894531 207.765625 189.984375 207.042969 189.769531 206.351562 Z M 189.769531 206.351562 " fill-opacity="1" fill-rule="nonzero"/></g></g></g></g><g fill="#000000" fill-opacity="1"><g transform="translate(164.077758, 238.145968)"><g><path d="M -26.074219 -54.28125 L 4.523438 -30.871094 C 8.695312 -27.683594 10.996094 -24.105469 11.433594 -20.136719 C 11.867188 -16.171875 10.449219 -12.054688 7.179688 -7.78125 C 6.3125 -6.644531 5.316406 -5.628906 4.199219 -4.738281 C 3.078125 -3.84375 2.03125 -3.171875 1.054688 -2.71875 C 0.078125 -2.261719 -0.847656 -1.890625 -1.722656 -1.605469 C -2.597656 -1.316406 -3.277344 -1.140625 -3.765625 -1.078125 L -4.535156 -0.929688 L -10.277344 -10.238281 C -6.792969 -10.792969 -4.417969 -11.898438 -3.152344 -13.554688 C -2.015625 -15.035156 -1.597656 -16.601562 -1.894531 -18.246094 C -2.191406 -19.894531 -3.355469 -21.496094 -5.390625 -23.050781 L -33.507812 -44.5625 Z M -26.074219 -54.28125 "/></g></g></g><g fill="#000000" fill-opacity="1"><g transform="translate(179.782484, 217.617168)"><g/></g></g><g fill="#000000" fill-opacity="1"><g transform="translate(187.730431, 207.227822)"><g/></g></g><g fill="#000000" fill-opacity="1"><g transform="translate(195.678379, 196.838476)"><g/></g></g><g fill="#000000" fill-opacity="1"><g transform="translate(203.626327, 186.44913)"><g/></g></g><g fill="#000000" fill-opacity="1"><g transform="translate(211.583049, 176.048314)"><g><path d="M 0.0429688 -48.148438 C 4.664062 -48.546875 8.9375 -47.242188 12.867188 -44.238281 C 16.792969 -41.234375 19.160156 -37.453125 19.96875 -32.90625 C 20.777344 -28.355469 19.714844 -24.167969 16.789062 -20.339844 C 14.101562 -16.828125 10.628906 -14.894531 6.375 -14.542969 L 6.292969 -14.441406 L 9.292969 -12.148438 L 2.371094 -3.101562 L -42.082031 -37.109375 L -35.082031 -46.257812 L -14.613281 -30.597656 C -15.078125 -34.558594 -13.964844 -38.296875 -11.277344 -41.8125 C -8.351562 -45.636719 -4.578125 -47.75 0.0429688 -48.148438 Z M 8.597656 -29.394531 C 8.3125 -31.414062 7.257812 -33.125 5.433594 -34.519531 C 3.605469 -35.917969 1.652344 -36.46875 -0.429688 -36.175781 C -2.511719 -35.886719 -4.222656 -34.859375 -5.566406 -33.101562 C -6.886719 -31.378906 -7.414062 -29.476562 -7.152344 -27.390625 C -6.890625 -25.304688 -5.84375 -23.5625 -4.019531 -22.167969 C -2.226562 -20.796875 -0.304688 -20.238281 1.75 -20.496094 C 3.804688 -20.753906 5.519531 -21.78125 6.890625 -23.574219 C 8.3125 -25.433594 8.882812 -27.375 8.597656 -29.394531 Z M 8.597656 -29.394531 "/></g></g></g><g fill="#000000" fill-opacity="1"><g transform="translate(86.942238, 133.512446)"><g><path d="M 35.234375 -40.699219 L 47.699219 -31.398438 C 53.679688 -26.933594 57.269531 -21.078125 58.464844 -13.828125 C 59.65625 -6.578125 57.957031 0.125 53.367188 6.28125 C 48.75 12.472656 42.804688 16.03125 35.53125 16.964844 C 28.257812 17.902344 21.613281 16.125 15.597656 11.636719 L 3.128906 2.335938 Z M 19.472656 0.886719 L 20.984375 2.015625 C 24.566406 4.6875 28.398438 5.664062 32.480469 4.949219 C 36.5625 4.230469 39.980469 2.058594 42.738281 -1.566406 C 45.464844 -5.21875 46.59375 -9.109375 46.132812 -13.242188 C 45.671875 -17.375 43.632812 -20.792969 40.015625 -23.492188 L 38.503906 -24.617188 Z M 19.472656 0.886719 "/></g></g></g><g fill="#000000" fill-opacity="1"><g transform="translate(121.679217, 159.427567)"><g><path d="M 3.128906 2.335938 L 23.09375 -24.421875 L 32.324219 -17.535156 L 29.445312 -13.675781 L 29.550781 -13.597656 C 29.722656 -13.683594 29.964844 -13.773438 30.277344 -13.867188 C 30.589844 -13.957031 31.203125 -14.070312 32.113281 -14.203125 C 33.023438 -14.335938 33.929688 -14.390625 34.832031 -14.367188 C 35.734375 -14.34375 36.777344 -14.144531 37.964844 -13.777344 C 39.148438 -13.40625 40.230469 -12.855469 41.203125 -12.132812 C 42.210938 -11.378906 43.097656 -10.5 43.863281 -9.496094 C 44.628906 -8.492188 45.136719 -7.679688 45.378906 -7.066406 L 45.800781 -6.101562 L 36.101562 -1.160156 C 35.679688 -2.988281 34.445312 -4.667969 32.394531 -6.199219 C 31.28125 -7.03125 30.140625 -7.5 28.980469 -7.609375 C 27.816406 -7.71875 26.808594 -7.550781 25.960938 -7.101562 C 25.113281 -6.652344 24.4375 -6.234375 23.933594 -5.851562 C 23.429688 -5.46875 23.078125 -5.140625 22.867188 -4.859375 L 12.363281 9.222656 Z M 3.128906 2.335938 "/></g></g></g><g fill="#000000" fill-opacity="1"><g transform="translate(143.900359, 176.005394)"><g/></g></g><g fill="#000000" fill-opacity="1"><g transform="translate(154.38372, 183.826384)"><g/></g></g><g fill="#000000" fill-opacity="1"><g transform="translate(164.867081, 191.647375)"><g/></g></g><g fill="#000000" fill-opacity="1"><g transform="translate(175.350442, 199.468365)"><g/></g></g><g fill="#000000" fill-opacity="1"><g transform="translate(185.833804, 207.289356)"><g/></g></g><g fill="#000000" fill-opacity="1"><g transform="translate(196.321745, 215.113764)"><g><path d="M 48.164062 -0.566406 C 48.628906 4.03125 47.382812 8.3125 44.425781 12.277344 C 41.46875 16.242188 37.714844 18.664062 33.160156 19.542969 C 28.609375 20.421875 24.402344 19.421875 20.542969 16.542969 C 16.996094 13.894531 14.902344 10.605469 14.269531 6.667969 L 2.246094 22.785156 L -6.988281 15.898438 L 23.09375 -24.421875 L 32.222656 -17.613281 L 29.964844 -14.589844 L 30.066406 -14.511719 C 34.257812 -15.335938 38.125 -14.425781 41.671875 -11.78125 C 45.53125 -8.902344 47.695312 -5.164062 48.164062 -0.566406 Z M 29.4375 8.15625 C 31.519531 7.871094 33.246094 6.804688 34.621094 4.960938 C 35.996094 3.117188 36.542969 1.1875 36.265625 -0.835938 C 35.988281 -2.855469 34.910156 -4.566406 33.03125 -5.96875 C 31.222656 -7.316406 29.296875 -7.832031 27.25 -7.519531 C 25.203125 -7.207031 23.503906 -6.148438 22.15625 -4.339844 C 20.78125 -2.496094 20.25 -0.535156 20.570312 1.542969 C 20.886719 3.621094 21.914062 5.308594 23.652344 6.605469 C 25.425781 7.925781 27.355469 8.445312 29.4375 8.15625 Z M 29.4375 8.15625 "/></g></g></g></svg>